<mxfile host="app.diagrams.net" modified="2021-05-10T06:59:56.765Z" agent="5.0 (Macintosh; Intel Mac OS X 10_15_7) AppleWebKit/537.36 (KHTML, like Gecko) Chrome/90.0.4430.93 Safari/537.36" etag="sbnd_UaGyx-wQdWloPYf" version="14.6.11" type="github">
  <diagram id="R0xXW42sn5KSVO9JYQyO" name="ページ1">
    <mxGraphModel dx="1428" dy="714" grid="1" gridSize="10" guides="1" tooltips="1" connect="1" arrows="1" fold="1" page="1" pageScale="1" pageWidth="827" pageHeight="1169" math="0" shadow="0">
      <root>
        <mxCell id="0" />
        <mxCell id="1" parent="0" />
        <mxCell id="p3bb257NG6S9f8_2_Aau-2" value="Next.js" style="shape=image;verticalLabelPosition=bottom;labelBackgroundColor=#ffffff;verticalAlign=top;aspect=fixed;imageAspect=0;image=data:image/svg+xml,PHN2ZyB4bWxucz0iaHR0cDovL3d3dy53My5vcmcvMjAwMC9zdmciIHJvbGU9ImltZyIgdmlld0JveD0iMC4wMDAyMDAwMDMzODU1NDM4MjMyNCAwIDIzLjk5OTc5OTcyODM5MzU1NSAyNCIgd2lkdGg9IjIzLjk5OTc5OTcyODM5MzU1NSIgaGVpZ2h0PSIyNCI+PHRpdGxlPk5leHQuanMgaWNvbjwvdGl0bGU+PHBhdGggZD0iTTExLjU3MjUgMGMtLjE3NjMgMC0uMzA5OC4wMDEzLS4zNTg0LjAwNjctLjA1MTYuMDA1My0uMjE1OS4wMjEtLjM2MzYuMDMyOC0zLjQwODguMzA3My02LjYwMTcgMi4xNDYzLTguNjI0IDQuOTcyOEMxLjEwMDQgNi41ODQuMzgwMiA4LjM2NjYuMTA4MiAxMC4yNTVjLS4wOTYyLjY1OS0uMTA4Ljg1MzctLjEwOCAxLjc0NzRzLjAxMiAxLjA4ODQuMTA4IDEuNzQ3NmMuNjUyIDQuNTA2IDMuODU5MSA4LjI5MTkgOC4yMDg3IDkuNjk0NS43Nzg5LjI1MTEgMS42LjQyMjMgMi41MzM3LjUyNTUuMzYzNi4wNCAxLjkzNTQuMDQgMi4yOTkgMCAxLjYxMTctLjE3ODMgMi45NzcyLS41NzcgNC4zMjM3LTEuMjY0My4yMDY1LS4xMDU2LjI0NjQtLjEzMzcuMjE4My0uMTU3My0uMDE4OC0uMDEzOS0uODk4Ny0xLjE5MzgtMS45NTQzLTIuNjJsLTEuOTE5LTIuNTkyLTIuNDA0Ny0zLjU1ODNjLTEuMzIzMS0xLjk1NjQtMi40MTE3LTMuNTU2LTIuNDIxMS0zLjU1Ni0uMDA5NC0uMDAyNi0uMDE4NyAxLjU3ODctLjAyMzUgMy41MDktLjAwNjcgMy4zODAyLS4wMDkzIDMuNTE2Mi0uMDUxNiAzLjU5Ni0uMDYxLjExNS0uMTA4LjE2MTgtLjIwNjQuMjEzNC0uMDc1LjAzNzQtLjE0MDguMDQ0NS0uNDk1LjA0NDVoLS40MDZsLS4xMDc4LS4wNjhhLjQzODMuNDM4MyAwIDAxLS4xNTcyLS4xNzEybC0uMDQ5My0uMTA1Ni4wMDUzLTQuNzAzLjAwNjctNC43MDU0LjA3MjYtLjA5MTVjLjAzNzYtLjA0OTMuMTE3NC0uMTEyNS4xNzM2LS4xNDMuMDk2Mi0uMDQ3LjEzMzgtLjA1MTcuNTM5Ni0uMDUxNy40Nzg3IDAgLjU1ODQuMDE4Ny42ODI3LjE1NDcuMDM1My4wMzc3IDEuMzM3MyAxLjk5ODcgMi44OTUgNC4zNjA4YTEwNzYwLjQzMyAxMDc2MC40MzMgMCAwMDQuNzM0NCA3LjE3MDZsMS45MDAyIDIuODc4Mi4wOTYtLjA2MzNjLjg1MTgtLjU1MzYgMS43NTI1LTEuMzQxOCAyLjQ2NTctMi4xNjI3IDEuNTE3OS0xLjc0MjkgMi40OTYzLTMuODY4IDIuODI0Ny02LjEzNC4wOTYxLS42NTkxLjEwNzgtLjg1NC4xMDc4LTEuNzQ3NSAwLS44OTM3LS4wMTItMS4wODg0LS4xMDc4LTEuNzQ3Ni0uNjUyMi00LjUwNi0zLjg1OTItOC4yOTE5LTguMjA4Ny05LjY5NDUtLjc2NzItLjI0ODctMS41ODM2LS40Mi0yLjQ5ODUtLjUyMzItLjE2OS0uMDE3Ni0xLjA4MzUtLjAzNjYtMS42MTIzLS4wMzd6bTQuMDY4NSA3LjIxN2MuMzQ3MyAwIC40MDgyLjAwNTMuNDg1Ny4wNDcuMTEyNy4wNTYyLjIwNC4xNjQyLjIzNy4yNzY3LjAxODYuMDYxLjAyMzQgMS4zNjUzLjAxODYgNC4zMDQ0bC0uMDA2NyA0LjIxNzUtLjc0MzYtMS4xNC0uNzQ2MS0xLjE0di0zLjA2NmMwLTEuOTgyLjAwOTMtMy4wOTYzLjAyMzQtMy4xNTAyLjAzNzUtLjEzMTMuMTE5Ni0uMjM0Ni4yMzIzLS4yOTU1LjA5NjEtLjA0OTQuMTMxMy0uMDU0LjQ5OTctLjA1NHoiLz48L3N2Zz4=;" vertex="1" parent="1">
          <mxGeometry x="80" y="40" width="120" height="120" as="geometry" />
        </mxCell>
      </root>
    </mxGraphModel>
  </diagram>
</mxfile>
